# xmcd CD database file
#
# Track frame offsets:
#	150
#	22585
#	44490
#	65645
#	79922
#	98087
#	114182
#	133342
#	149382
#	170782
#	208945
#	230465
#
# Disc length: 3393 seconds
#
# Revision: 3
# Processed by: cddbd v1.4PL0 Copyright (c) Steve Scherf et al.
# Submitted via: CDex 1.50
#
DISCID=aa0d3f0c
DTITLE=Bugs Henderson - Years In The Jungle
DYEAR=1993
DGENRE=Rock
TTITLE0=Anthem For The Blues
TTITLE1=She Feels Good
TTITLE2=Lost In Austin
TTITLE3=Big D Shuffle
TTITLE4=Stabbed In The Back
TTITLE5=Sweet Marie
TTITLE6=Summertime Blues
TTITLE7=Little Miss Rainbow
TTITLE8=Honey Mama
TTITLE9=Blues In Reverse
TTITLE10=Video S.O.B.
TTITLE11=Cowboy
EXTD=YEAR: 1993
EXTT0=
EXTT1=
EXTT2=
EXTT3=
EXTT4=
EXTT5=
EXTT6=
EXTT7=
EXTT8=
EXTT9=
EXTT10=
EXTT11=
PLAYORDER=
